Coordinates
version=1
nRows=27
nColumns=12
inDegrees=yes

Units are S.I. units (second, meters, Newtons, ...)
Angles are in degrees

endheader
time	SC_y	SC_z	SC_x	AC_y	AC_z	AC_x	GH_y	GH_z	GH_yy	EL_x	PS_y
       0.0              -58.02          5.087          67.96          35.87         -14.78           8.63         -125.1           7.36         -119.7          39.17          31.06
    0.0303              -58.02          5.085          67.95          35.88         -14.78          8.627         -125.1          7.359         -119.7          39.17          31.08
   0.06059              -58.01          5.084          67.94          35.88         -14.78          8.623         -125.0          7.358         -119.7          39.17           31.1
   0.09089              -58.01          5.082          67.93          35.88         -14.77           8.62         -125.0          7.357         -119.7          39.18          31.12
    0.1212              -58.01          5.081          67.92          35.88         -14.77          8.616         -125.0          7.356         -119.7          39.18          31.14
    0.1515               -58.0          5.079           67.9          35.88         -14.77          8.612         -125.0          7.354         -119.8          39.19          31.16
    0.1818               -58.0          5.077          67.89          35.89         -14.76          8.608         -125.0          7.353         -119.8           39.2          31.19
    0.2121              -57.99          5.075          67.88          35.89         -14.76          8.603         -124.9          7.352         -119.8           39.2          31.21
    0.2424              -57.99          5.073          67.86          35.89         -14.75          8.598         -124.9           7.35         -119.8          39.21          31.24
    0.2727              -57.98          5.071          67.84          35.89         -14.75          8.593         -124.9          7.348         -119.8          39.21          31.27
     0.303              -57.98          5.068          67.83           35.9         -14.74          8.588         -124.9          7.346         -119.8          39.22          31.31
    0.3333              -57.97          5.066          67.81           35.9         -14.74          8.582         -124.8          7.344         -119.8          39.23          31.34
    0.3636              -57.97          5.063          67.79           35.9         -14.73          8.575         -124.8          7.342         -119.8          39.24          31.38
    0.3939              -57.96           5.06          67.77           35.9         -14.73          8.568         -124.8           7.34         -119.9          39.25          31.42
    0.4241              -57.95          5.057          67.74          35.91         -14.72           8.56         -124.7          7.337         -119.9          39.26          31.47
    0.4544              -57.94          5.053          67.72          35.91         -14.71          8.552         -124.7          7.335         -119.9          39.27          31.51
    0.4847              -57.94          5.049          67.69          35.92          -14.7          8.543         -124.6          7.332         -119.9          39.28          31.57
     0.515              -57.93          5.045          67.66          35.92          -14.7          8.533         -124.6          7.328         -119.9          39.29          31.62
    0.5453              -57.91          5.041          67.62          35.93         -14.69          8.523         -124.5          7.325         -120.0          39.31          31.69
    0.5756               -57.9          5.036          67.59          35.93         -14.68          8.511         -124.5          7.321         -120.0          39.32          31.75
    0.6059              -57.89           5.03          67.54          35.94         -14.66          8.498         -124.4          7.317         -120.0          39.34          31.83
    0.6362              -57.88          5.024           67.5          35.95         -14.65          8.484         -124.3          7.312         -120.1          39.36          31.91
    0.6665              -57.86          5.017          67.45          35.95         -14.64          8.469         -124.3          7.307         -120.1          39.38           32.0
    0.6968              -57.84           5.01           67.4          35.96         -14.62          8.451         -124.2          7.301         -120.1           39.4          32.11
    0.7271              -57.82          5.001          67.34          35.97         -14.61          8.432         -124.1          7.295         -120.2          39.43          32.22
    0.7574               -57.8          4.992          67.27          35.98         -14.59          8.411         -124.0          7.288         -120.2          39.46          32.34
    0.7877              -57.78          4.982          67.19          35.99         -14.56          8.387         -123.8           7.28         -120.3          39.49          32.49
